<?xml version="1.0" standalone="no"?><!DOCTYPE svg PUBLIC "-//W3C//DTD SVG 1.1//EN" "http://www.w3.org/Graphics/SVG/1.1/DTD/svg11.dtd"><svg t="1597825587882" class="icon" viewBox="0 0 1024 1024" version="1.1" xmlns="http://www.w3.org/2000/svg" p-id="2950" xmlns:xlink="http://www.w3.org/1999/xlink" width="16" height="16"><defs><style type="text/css"></style></defs><path d="M753.86 860.59c-8.28 5.77-16.86 11.3-25.52 16.46-11.86 7.06-15.76 22.4-8.7 34.27 4.68 7.86 12.98 12.22 21.51 12.22 4.35 0 8.75-1.14 12.76-3.52 9.68-5.76 19.29-11.96 28.54-18.4 11.33-7.89 14.11-23.48 6.22-34.8-7.9-11.34-23.48-14.12-34.81-6.23z" fill="#0000FF" p-id="2951"></path><path d="M948.17 329.07c-23.83-56.34-57.93-106.93-101.37-150.36-43.44-43.44-94.03-77.54-150.36-101.37-58.34-24.68-120.29-37.19-184.15-37.19S386.47 52.66 328.13 77.34c-56.34 23.83-106.93 57.94-150.36 101.37-43.44 43.44-77.54 94.03-101.37 150.36-24.67 58.34-37.19 120.29-37.19 184.15S51.72 639.03 76.4 697.37c23.83 56.34 57.93 106.93 101.37 150.36 43.44 43.44 94.03 77.54 150.36 101.37 58.34 24.68 120.29 37.19 184.15 37.19 31.52 0 63.03-3.12 93.68-9.28 13.54-2.72 22.3-15.9 19.58-29.44-2.72-13.54-15.9-22.31-29.43-19.59-27.41 5.51-55.61 8.3-83.83 8.3C279 936.29 89.21 746.51 89.21 513.22S279 90.15 512.28 90.15s423.07 189.79 423.07 423.07c0 114.23-44.83 221.29-126.23 301.46-9.84 9.69-9.96 25.52-0.27 35.35 9.69 9.84 25.52 9.96 35.35 0.27 44.21-43.54 78.94-94.42 103.24-151.23 25.16-58.83 37.91-121.36 37.91-185.85 0-63.85-12.51-125.81-37.18-184.15z" fill="#0000FF" p-id="2952"></path><path d="M638.53 494.32L496.75 352.54a25.005 25.005 0 0 0-27.25-5.42 25.006 25.006 0 0 0-15.43 23.1v283.57c0 10.11 6.09 19.23 15.43 23.1 3.09 1.28 6.34 1.9 9.56 1.9 6.51 0 12.9-2.54 17.68-7.32l141.78-141.78c9.78-9.78 9.78-25.6 0.01-35.37z" fill="#FF0000" p-id="2953"></path></svg>